<?xml version="1.0" encoding="UTF-8"?>
<svg xmlns="http://www.w3.org/2000/svg" version="1.1" viewBox="0 0 1417.32 1417.32">
  <!-- Generator: Adobe Illustrator 29.1.0, SVG Export Plug-In . SVG Version: 2.1.0 Build 142)  -->
  <defs>
    <style>
      .st0 {
        fill: none;
      }

      .st1 {
        fill: #e52420;
      }
    </style>
  </defs>
  <g id="background">
    <rect class="st0" x="0" y="0" width="1417.32" height="1417.32"/>
  </g>
  <g id="text">
    <path class="st1" d="M700.99,314.63v7.84c1.38,1.48,2.72,2.92,4.01,4.3-.09,1.42-.17,2.72-.24,3.85-1.36,1.56-2.64,3.02-3.62,4.15-.79,3.53,1.14,5.33,3.14,7.02,1.68,3.88-.17,7.91,1.7,13.42.01.01,1.23,1.49,2.78,3.37v27.32c1.38,1.57,2.66,3.02,4.12,4.68v11.65c1.39,1.49,2.74,2.93,4.09,4.38v11.83c-1.32,1.47-2.58,2.86-3.83,4.25,1.06,1.06,2,2,3.02,3.02,1.7,4.38.52,9.01.81,13.56.25,3.92-.44,7.89.51,11.76.96.96,1.9,1.9,2.85,2.85.22.58.62,1.15.63,1.73.05,6,.05,12,0,17.99,0,.56-.47,1.12-.72,1.69-.94.94-1.88,1.89-3.03,3.04v8.09c.97,1.09,2.26,2.54,3.63,4.08.05,1.17.11,2.48.17,3.84,1.31,1.41,2.66,2.85,3.96,4.26v3.85c-1.33,1.49-2.56,2.88-3.7,4.16,1.26,1.52,2.37,2.87,3.46,4.18-5.16,5.57-5.15,5.88.09,11.57v8.06c-1.01,1.12-2.31,2.58-3.62,4.03,1.24,1.37,2.52,2.8,3.86,4.29v31.72c1.42,1.57,2.73,3.02,3.81,4.21.77,3.38-.9,5.31-3.02,6.95-1.38,3.18-1.01,6.33-.27,9.47.96.96,1.9,1.9,2.84,2.84.19.59.56,1.17.56,1.76.04,8.66.03,17.33.02,25.99.88,3,5.49,4.21,3.87,8.67-1.09,1.2-2.4,2.65-3.82,4.21v3.86c1.77,2.4,4.24,2.96,6.62,1.27,2.1-1.49,3.7-3.67,5.28-5.3.17-1.72-.18-3.43.51-4.2,3.08-3.44,6.46-6.62,9.5-9.66,1.72-.12,3.02-.22,4-.29,1.73-1.35,3.09-3.09,4.82-3.59,1.83-.53,3.67-.43,5.19-2.05,4.55-4.85,9.29-9.53,13.8-14.13h4.25c1.93-1.93,3.81-3.81,5.75-5.75.11-3.26.1-6.58,5.01-6.31,1.02.06,2.48-.97,3.11-1.92,2.03-3.04,6.42-.94,8.36-4.16.98-1.63,2.56-2.9,3.68-4.14.19-1.59.35-2.86.34-2.84,3.69-4.29,6.7-7.81,9.22-10.74,2.27-.21,3.55-.33,4.83-.45,2.36-2.36,4.71-4.71,7.07-7.07,3.88-1.07,7.84-.37,11.51-.56,2.85-.56,3.65-3.62,6.57-4.13,4.51-.78,4.42-1.14,4.5-4.59.04-1.94.19-3.87.24-5.04,2.23-2.51,3.99-4.49,5.63-6.33h4.14c1.39-.88,2.04-1.96,1.96-3.31-.19-3.25,1.26-4.82,4.57-4.63.6.03,1.22-.24,3.4-.71,7.02-7.02,14.99-14.99,23.34-23.34.58-.07,2.32.27,3.06-.43,6.69-6.45,13.21-13.09,19.58-19.46,1.69-.1,2.99-.18,4.29-.25,1.65-4.56,7.22-2.43,9.71-5.73v-4.14c1.87-1.68,3.84-3.45,6.17-5.55,5.15-.95,5.42-1.22,6.24-6.63,1.92-1.96,3.78-3.86,5.62-5.74h3.95c1.5-1.39,2.94-2.72,4.29-3.97,1.46-.1,3.25.33,3.97-.36,6.69-6.49,13.2-13.16,19.66-19.68h4.2c.66-1.1,1.82-2.15,1.85-3.23.11-3.11,1.09-5.01,4.53-4.72,1.4.12,2.46-.44,3.29-1.72,1.61-2.5,4.35-2.36,6.51-2.52,4.08-4.08,7.85-7.85,11.69-11.69h4.02c9.36-9.36,18.75-18.76,28.13-28.13h3.99c5.26-5.26,10.37-10.51,15.7-15.54.73-.69,2.51-.28,3.98-.4,1.34-1.23,2.78-2.55,4.31-3.95h4.13c3.13-3.2,6.35-6.57,9.66-9.84.88-.87,1.97-1.66,3.1-2.13,1.14-.47,2.46-.5,3.7-.72,4.01-4.93,10.93-7.7,9.93-15.32h5.3c1.48-1.38,2.92-2.72,4.29-4,1.43-.08,2.73-.15,4.03-.23,2.36-2.36,4.71-4.71,7.14-7.14,2.1-1.12,4.87-.35,6.83-2.69,2.99-3.56,6.5-6.68,9.75-9.95h4.06c2.79-2.79,5.57-5.57,7.88-7.88,2.08-.27,3.34-.44,4.78-.63,5.08-5.08,10.26-10.26,15.5-15.5h3.75c1.52-1.4,2.97-2.73,4.31-3.96,1.47-.11,3.63.21,3.92-.38,2.31-4.78,9-2.32,11.21-7,2.57-.28,5.14-.57,7.4-.82,3.24,1.25,4.74,5.26,8.68,4.18,1.5,1.25,2.99,2.5,4.7,3.92h3.97c1.64,1.84,3.4,3.82,5.54,6.23.26,2.61.64,5.89,4.21,7.21v16.55c-1.14,1.23-2.48,2.67-3.87,4.16v3.84c-1.38,1.48-2.72,2.92-4,4.28-.08,1.43-.16,2.73-.24,4.04-4.56,1.65-2.43,7.22-5.73,9.71h-3.82c-2.91,2.77-5.76,5.48-8.66,8.24h-7.57c-2.47,1.48-1.88,3.6-2.02,6.1-1.68,1.42-3.7,3.13-6.34,5.36q-5.27,1.15-5.89,6.62c-5.18,5.18-10.37,10.37-15.55,15.55-.06,1.31-.12,2.62-.2,4.41-1.73,1.5-3.72,3.24-6.08,5.3-6.14.56-9.74,4.33-10.44,11.01-5.66,5.66-11.25,11.37-17.04,16.89-.74.71-2.46.4-2.95.46-6.51,6.51-12.59,12.59-19.4,19.4,0-.09,0,1.23,0,2.67-4.7,4.63-9.43,9.29-14.24,14.03h-3.83c-.49.49-1.19.88-1.4,1.45-2.43,6.56-3.71,8.44-7.32,10.53-3.07-.59-4.61,1.69-6.69,3.25-1.38,1.04-3.55.97-5.32,1.57-.52.18-.84.94-1.25,1.44-.06,1.31-.12,2.62-.17,3.66-3.37,3.48-6.61,6.83-9.79,10.12h-3.97c-1.55,1.41-2.99,2.73-4.33,3.95-5.46.33-5.49.36-5.75,6.03-3.07,3.07-6.24,6.45-9.69,9.53-.77.69-2.49.33-4.06.48-2.69,2.55-5.54,5.26-8.45,8.03h-3.83c-3.83,3.83-7.6,7.6-11.37,11.37q-6.24,1.38-6.76,6.26c-3.48,3.71-6.66,7.1-9.74,10.38h-4.17c-2.13,2.79-4.65,4.65-8.28,4.31-5.67,5.67-11.32,11.32-16.98,16.98-.21.58-.51,1.14-.62,1.74-.92,4.8-.93,4.86-6.22,5.09-2.03,2.78-4.65,4.45-8.85,4.19-6.29,6.3-12.85,12.88-19.58,19.63-.99.06-2.29.14-3.59.22-3.77,3.77-7.46,7.63-11.38,11.23-.77.7-2.47.38-4.45.62-3.77,3.76-7.95,7.93-11.92,11.89-5.4.28-5.71.3-5.91,3.58-.14,2.24-.84,3.66-2.84,4.4-.59.22-1.41-.17-1.97.08-1.13.5-2.15,1.24-3.25,1.9v4.09c-3.29,3.19-6.63,6.44-10.17,9.88h-7.28c-3.33,1.42-1.81,4.8-3.29,6.69-1.6,2.05-3.69,3.72-5.38,5.37-1.64.13-2.93.23-4.22.34-5.18,5.18-10.37,10.37-15.62,15.62h-4.5c-2.93,3.09-6.12,6.47-9.34,9.82-1.09,1.13-3.11,1.93-6.82,2.83-10.37,10.37-20.7,20.77-31.18,31.03-.71.69-2.51.28-3.34.34-8.23,8.23-16.21,16.21-23.71,23.71-2.2.15-3.5.23-4.91.33-2.19,2.22-5.19,3.81-6.26,7.14,1.24,4.44-5.83,5.67-3.85,10.71,1.05,1.17,2.36,2.62,3.79,4.2v7.71c1.39,1.51,2.73,2.96,4.12,4.47v7.68c1.33,1.53,2.54,2.91,3.65,4.17-1.26,1.54-2.35,2.89-3.42,4.2,1.26,1.26,2.2,2.2,3.16,3.16,1.25,5.2.06,10.5.81,16.39.82.97,2.08,2.44,3.74,4.39,0,5.39,0,11.35,0,17.3,0,3.2.03,3.14,4.69,4.51,1.16.34,2.15,1.23,3.26,1.89v19.89c1.34,1.46,2.63,2.88,3.85,4.22-1.23,1.42-2.42,2.8-3.67,4.25,5.54,2.84,2.99,8.3,4.49,12.33.96.96,1.9,1.9,2.84,2.84.99,3.89.34,7.85.55,12.11,1.09,1.26,2.35,2.73,3.84,4.46v7.54c1.39,1.52,2.72,2.96,4.12,4.48v7.83c-1.29,1.41-2.57,2.81-3.85,4.22,2.43,2.43,4.78,4.79,7.24,7.24,1.34,3.04.45,6.36.6,9.59.15,3.33.03,6.66.03,10,1.72,3.68,5.18,5.84,7.87,8.93v19.74c1.4,1.5,2.74,2.94,4.12,4.43v7.84c1.38,1.48,2.72,2.92,4,4.28.08,1.43.16,2.73.23,3.87,1.36,1.56,2.64,3.02,4.02,4.59v7.57c1.18,1.18,2.12,2.12,3.06,3.06,1.85,5.69-.46,11.72,1.41,17.41.94.94,1.89,1.88,3.06,3.06v15.58c1.38,1.57,2.66,3.03,4.02,4.58.06,1.15.14,2.45.22,3.87,1.28,1.37,2.62,2.81,4,4.29v7.91c6.61,6.61,13.21,13.21,19.89,19.89v11.79c1.4,1.51,2.74,2.95,4.06,4.36v23.86c-1.4,1.53-2.73,2.97-3.95,4.31-.11,1.47-.21,2.76-.31,4.06-2.97,1.94-4.12,4.82-4.23,8.22-4.25,4.25-8.5,8.5-12.74,12.74-5.69,1.91-11.72-.4-17.41,1.41-.94.94-1.89,1.88-3.07,3.07h-16.12c-1.02-.89-2.48-2.16-4.04-3.52-1.13-.07-2.43-.15-4.9-.31-3.48-3.71-7.54-8.08-11.68-12.38-1.33-1.38-2.54-3.71-4.5-3.41-4.44.67-5.87-5.49-10.36-4.13-1.94-.89-2.88-2.28-2.68-4.53.18-1.93.04-3.89.04-5.46-1.32-1.32-2.26-2.26-3.2-3.2-.65-.94-.21-1.85,1.23-2.84,1.84-1.25,2.14-3.13,1.9-5.81-3.75-3.87-7.85-8.11-12.01-12.4v-11.66c-1.34-1.56-2.53-2.93-3.7-4.3,1.98-2.04,4.4-3.54,3.73-6.83-1.64-3.58-5.11-5.72-7.67-8.67-.09-1.29-.18-2.59-.29-4.05-1.25-1.35-2.58-2.79-3.89-4.2,1.23-1.36,2.5-2.75,3.77-4.15-1.02-1.02-1.97-1.97-3.15-3.15-2.01-5.42.32-11.45-1.18-17.17-.94-.94-1.89-1.88-3.04-3.04-1.23-4.97-.13-10.26-.57-16.02-.96-1.11-2.92-2.39-3.31-4.04-.77-3.22-1.38-6.28-4.51-8.15v-15.95c-1.4-1.5-2.74-2.94-4.12-4.42v-7.84c-1.38-1.48-2.72-2.92-4.12-4.42v-11.75c-1.78-2.06-4.25-3.37-3.94-6.6.21-2.21-2.03-3.16-3.26-4.65-.21-.54-.64-1.11-.64-1.68-.04-8.66-.03-17.33-.03-26.42-1.01-1.23-2.23-2.7-3.55-4.31.19-3.36-1.44-5.99-4.34-8.09v-15.84c-1.39-1.49-2.74-2.93-4.12-4.41v-3.81c-1.39-1.51-2.72-2.95-4.12-4.46v-7.56c-1.48-1.72-2.75-3.18-3.86-4.47v-11.57c-1.46-1.46-2.41-2.41-3.35-3.35-.22-.58-.62-1.15-.62-1.73-.05-6-.05-12,0-17.99,0-.56.47-1.12.73-1.68.94-.94,1.88-1.89,3.15-3.15-2.64-2.72-5.28-5.45-7.95-8.21v-11.85c-1.31-1.96-3.22-2.14-5.27-2-.51.29-1.16.48-1.58.9-6.15,6.1-12.27,12.24-18.46,18.43-2.1,1.14-4.77.48-6.84,2.68-6.85,7.27-14.06,14.21-21.29,21.45-3.04.36-5.99,1.2-8.18,3.99-.56.71-2.44.37-5.05.67-1.79,2.29-4.22,5.41-6.15,7.87h-5.15c-3.41,2.51-1.4,6.14-1.99,9.27-2.47,3.9-6.25,6.67-9.4,10.12-2.2.94-4.9.36-6.85,2.71-2.96,3.57-6.4,6.75-9.45,9.91h-4.7c-7.83,7.88-15.81,15.9-23.87,24.01h-3.7c-2.05,1.34-2.09,3.29-1.99,5.38-1.88,2.56-3.87,5.08-6.88,6.55-3.94-1.08-5.21,4.1-8.33,3.85-4.36-.35-5.78,5.53-10.39,4.29-.53-.14-2.15,1.59-2.29,2.59-.28,1.96-.12,4-2.05,5.16-3.16,1.9-1.02,6.35-4.19,8.32-1.63,1.01-2.9,2.58-4.17,3.75-1.56.16-2.83.3-4.75.5-6.22,6.23-12.79,12.81-19.49,19.54-1.04.05-2.35.12-3.65.19-5.18,5.18-10.3,10.44-15.63,15.47-.73.69-2.52.25-3.47.3-8.17,8.18-16.16,16.17-23.76,23.78-2.03.1-3.33.17-4.38.23-6.71,6.72-13.28,13.31-19.49,19.54-1.92.2-3.2.34-5.59.59-2.33,2.95-5.21,6.59-9.48,11.99q-.7,3.46-6.3,4.21c-5.18,5.18-10.37,10.37-15.61,15.61h-7.75c-2,1.23-1.69,3.39-2.47,4.98-2.32,4.73-6.34,8.17-10.73,11.02-.97.63-2.46.46-3.71.66-3.77,3.77-7.54,7.54-11.35,11.36h-4.24c-6.41,6.49-12.91,13.18-19.59,19.67-.71.69-2.51.27-3.97.38-1.34,1.24-2.79,2.56-4.3,3.96h-3.85c-.7,1.06-1.65,2-2.04,3.14-1.96,5.75-2.41,6.68-8.7,8.74-2.65.87-3.62,3.9-6.3,4.07-2.07.13-3.98.35-5.09,2.18-1.64,2.71-4.93,1.04-6.85,2.81-.98.9-1.89,1.88-2.83,2.82-1.3.08-2.6.17-4.04.26-1.36,1.26-2.8,2.6-4.28,3.98h-3.94c-2.34,2.35-4.68,4.72-6.95,7-.64.37-1.17.95-1.71.96-5.27.07-10.53.04-15.33.04-1.41-1.41-2.36-2.36-3.75-3.75-2.1-.1-4.68-.22-8-.38-1.96-.27-2.69-3.92-5.59-3.82-1.47.05-2.64-.08-3.61-.99-1.01-.94-1.21-2.08-1.08-3.58.17-1.93.04-3.89.04-5.38-2.27-2.32-4.14-4.22-5.97-6.1h-3.99c-1.9-1.29-1.66-3.31-2.18-5.15-.48-1.72-2.21-3.1-3.56-4.86-.08-.94-.18-2.23-.31-3.78-2.57-2.71-5.28-5.56-7.89-8.3v-3.93c1.68-2.07,4.33-3.28,3.97-6.54-.25-2.27,1.99-3.18,3.2-4.69.25-1.19.82-2.46.69-3.64-.38-3.56.54-6.46,3.54-8.56.3-3.32,1.46-6.11,4.15-8.35.69-.57.28-2.48.36-3.68,5.26-5.15,10.48-10.25,14.7-14.38,2.22-5.2.52-9.21.96-10.66.82-5.61,6.06-6.52,4.32-10.05,7.84-7.84,15.32-15.32,23.31-23.32h10.64c1.6,1.43,3.05,2.73,4.59,4.12h7.53c2.16,2.1,4.07,3.95,5.95,5.77v4.05c2.49,3.42,6.12,1.41,9.3,2,2.71-1.71,5.14-3.84,6.62-6.79.54-1.08.4-2.49.58-3.75,2.83-2.83,5.64-5.67,8.5-8.47.44-.43,1.05-.68,1.58-1.01,1.27-.14,2.55-.28,3.82-.42q7.04-6.99,10.9-7.59c3.89-2.52,6.68-6.27,10.07-9.38.2-.58.48-1.15.6-1.75.9-4.73.9-4.8,6.23-5.08,2.36-2.36,4.71-4.71,7.53-7.53,2.09-.1,4.66-.22,7.65-.37,2.82-1.09,4.37-4.1,6.56-5.98.16-1.69.27-2.98.39-4.26,7.07-7.07,14.14-14.14,21.21-21.21,1.27-.14,2.55-.29,4.51-.51,8.52-8.52,17.5-17.37,26.29-26.4,1.71-1.75,3.51-1.37,5.41-1.52,1.44-1.33,2.89-2.66,4.38-4.04h3.76c1.55-1.41,3-2.73,4.33-3.94,5.46-.34,5.5-.38,5.74-5.99,4.63-4.39,9.45-8.95,14.74-13.96h3.15c7.94-8.05,15.88-16.1,23.68-24.01h4.64c3.09-3.18,6.3-6.55,9.6-9.83.88-.88,1.96-1.67,3.1-2.14,1.14-.47,2.46-.49,2.36-.47,2.96-2.33,5.04-3.96,6.64-5.21.35-5.81.37-6.11,3.66-6.28,2.28-.11,3.64-.88,4.36-2.89.21-.59-.17-1.41.08-1.97.51-1.13,1.26-2.14,1.93-3.22h4.14c3.67-3.71,7.34-7.59,11.23-11.22.78-.73,2.4-.56,3.63-.8.57-.23,1.29-.31,1.69-.71,4.28-4.21,8.5-8.46,12.75-12.7,1.23-5.08,1.48-5.45,7.27-10.58,1.27-.16,2.53-.32,3.94-.5,5.08-5.12,10.23-10.33,15.37-15.52h4.02c3.79-3.79,7.56-7.56,11.33-11.33,1.24-.22,2.52-.31,3.72-.67,2.04-.61,2.96-1.87,3.02-4.23.08-3.02.35-3.41,3.34-3.64,3.26-.25,4.76-1.44,4.59-4.71-.03-.6.26-1.21.32-1.5,2.01-2.14,3.83-4.07,5.58-5.94h4.11c6.64-6.64,13.23-13.23,19.89-19.89h3.82c2.92-2.77,5.77-5.48,8.47-8.03,1.56-.15,2.85-.27,4.08-.38,1.93-1.9,3.82-3.77,5.7-5.63v-4.02c1.89-1.89,3.78-3.78,5.66-5.66,5.46-.72,6.4-1.43,6.33-5.03-.04-2,.05-4-.03-6-.05-1.27-.31-2.53-.48-3.79-.94-.94-1.89-1.88-2.85-2.85.17-3.06,4.94-4.24,3.14-8.52-.95-1.08-2.24-2.54-3.69-4.17v-23.65c-1.4-1.5-2.74-2.94-4.12-4.42v-31.8c-1.4-1.52-2.73-2.96-4.12-4.48v-47.52c-1.36-1.63-2.49-2.99-3.59-4.32q3.61-3.71-.07-7.55v-19.62c-1.38-1.55-2.68-3-4.12-4.62v-31.63c-1.38-1.52-2.69-2.96-3.95-4.34,1.32-1.45,2.64-2.9,3.71-4.07v-24.04c-5.26-5.7-5.27-6.04-.45-11.24.2-.58.58-1.16.58-1.75.03-19.33.03-38.66.03-58.35,1.06-1.26,2.3-2.73,3.7-4.4-1.1-1.26-2.3-2.64-3.64-4.17v-27.8c1.23-1.36,2.53-2.79,3.77-4.17-1.31-1.45-2.62-2.9-4.01-4.44v-35.67c-2.53-2.53-4.89-4.89-7.25-7.25-.19-.59-.55-1.17-.55-1.76-.04-6-.03-12-.03-18.34,1.08-1.27,2.33-2.74,3.83-4.51v-11.48c1.39-1.53,2.71-2.98,4.12-4.53v-4.02c1.86-1.73,3.8-3.54,5.89-5.48,3.3.2,5.92-1.46,7.95-4.25,1.31-.07,2.62-.13,4.02-.2,1.38-1.29,2.82-2.63,4.25-3.97h7.86c1.52,1.4,2.96,2.73,4.3,3.96,1.47.11,3.24-.31,3.97.38,4.82,4.51,9.42,9.26,14,13.84v8c2.57,2.57,4.93,4.93,7.3,7.3,1.09,5.21.06,10.51.69,16.31.91,1.05,2.18,2.51,3.66,4.21v7.59c1.4,1.51,2.75,2.96,4.13,4.45Z"/>
  </g>
</svg>