<?xml version="1.0" encoding="UTF-8" standalone="no"?>
<svg
   xmlns:dc="http://purl.org/dc/elements/1.1/"
   xmlns:cc="http://creativecommons.org/ns#"
   xmlns:rdf="http://www.w3.org/1999/02/22-rdf-syntax-ns#"
   xmlns:svg="http://www.w3.org/2000/svg"
   xmlns="http://www.w3.org/2000/svg"
   id="svg22"
   version="1.1"
   style="overflow:visible"
   viewBox="-240 -187 480 352"
   height="352px"
   width="480px">
  <metadata
     id="metadata28">
    <rdf:RDF>
      <cc:Work
         rdf:about="">
        <dc:format>image/svg+xml</dc:format>
        <dc:type
           rdf:resource="http://purl.org/dc/dcmitype/StillImage" />
      </cc:Work>
    </rdf:RDF>
  </metadata>
  <defs
     id="defs26" />
  <rect
     id="rect2"
     fill-opacity="0"
     fill="rgb(0,0,0)"
     height="352"
     width="480"
     y="-187"
     x="-240" />
  <svg
     id="svg10"
     version="1.1"
     y="-250"
     x="-250"
     viewBox="-250 -250 500 500"
     height="500"
     width="500"
     style="overflow:visible">
    <g
       style="fill:#ffffff;stroke-linejoin:round"
       id="g8">
      <path
         style="fill:#ff0000;fill-opacity:1;stroke:none;stroke-linecap:butt;stroke-linejoin:round"
         id="path4"
         d="m -75.154,-101.948 c -1.50319,-6.02964 -5.0062,-6.87888 -9.13772,-12.1158 -5.18501,-7.83099 -12.1375,-13.1025 -19.3804,-15.3109 -2.67636,-0.81604 -0.34512,4.45696 -2.88651,4.15333 -7.54177,-0.90104 -18.8786,-5.92936 -20.301,-7.24808 -10.3106,4.89503 -13.8987,-3.21761 -14.9979,6.21592 0.67797,2.12359 -6.60823,1.12091 -10.171,5.66331 2.19745,4.17632 -3.53059,9.51192 -2.64649,11.1586 2.56037,4.10594 2.4173,6.21693 4.31098,10.520899 3.86854,3.14514 -2.35767,3.07777 4.77253,8.34699 7.99967,8.00444 12.4785,5.46196 10.719,13.6134 15.5489,3.71195 6.39274,-0.85108 15.4641,5.79053 3.02061,2.52434 6.46453,0.3671 7.75115,1.18176 8.90602,5.63918 23.9004,15.3689 30.0267,21.2627 1.41193,1.35837 3.62847,2.03682 4.96962,3.36435 1.23571,1.22317 3.32038,3.71188 4.49228,4.93192 2.82703,2.94314 6.91122,5.31824 9.43242,8.1492 6.17824,6.93741 13.297,12.5911 21.0374,20.9753 13.8227,13.5383 89.8612,85.1745 103.735,98.8832 6.12669,6.05359 9.64367,12.2054 14.849,16.875501 8.164899,2.73985 14.8383,18.0925 34.7378,33.3693 1.03115,0.86645 -9.51,-13.488 -8.4901,-12.6565 40.8344,30.6113 5.20017,-3.77762 12.4682,-0.0412 4.87576,2.50655 27.8978,26.8253 29.8088,26.8635 3.04154,0.0608 0.67225,-2.74764 0.57991,-4.04581 -0.13657,-1.91962 7.27863,0.28622 10.9264,0.93331 0.9515,0.16877 -52.8495,-58.952902 -51.7404,-59.684102 3.56812,-2.35224 46.8294,46.552602 46.8174,49.161202 -0.0172,3.70144 4.27559,1.14157 1.98761,-2.46287 -9.14569,-14.408 -18.5676,-34.4836 -37.3075,-54.891402 -1.60311,-1.74578 -3.51879,-2.07993 -5.17409,-3.85865 -0.87771,-0.94314 -1.6659,-3.20146 -2.55767,-4.15349 -0.64269,-0.68611 -3.1603,-1.76469 -3.81011,-2.45531 -33.6978,-35.8139 -130.713,-132.31 -180.286,-172.488998 z" />
      <path
         style="fill:#ff0000;fill-opacity:1;stroke:none;stroke-linecap:butt;stroke-linejoin:round"
         id="path6"
         d="m 90.995,-154.5053 c -29.1123,43.1247 -135.478,163.442 -183.908,212.916 -1.46463,1.49622 -2.90377,2.32065 -4.36391,3.80175 -3.61437,3.6662 -15.1548,15.5204 -21.995,23.3728 -1.51976,1.74469 -2.78659,1.48445 -4.42433,3.07734 -0.70549,0.68618 -2.61737,3.79879 -2.61737,3.79879 2.20634,2.65725 -26.7806,25.0981 -39.0607,35.2629 -1.52816,2.07308 6.70243,2.11153 19.7613,-8.18856 3.54051,-0.19489 -15.4553,13.6984 -14.6892,13.6558 -0.65174,2.49962 19.3553,-12.6241 19.0129,-10.2569 -1.20022,3.03266 -18.9335,18.2384 -22.4271,22.1626 -0.66016,0.74156 9.31099,-4.26329 12.2764,-5.37479 0.482,0.28656 -8.38753,6.90068 -6.4228,6.41481 7.69519,-1.90295 30.3868,-22.081 48.6018,-36.9268 2.58422,2.53738 -25.3911,27.44 -27.4068,31.2383 3.74197,-1.31359 8.00801,-4.79328 18.5697,-11.2564 0.89193,-0.54581 49.7517,-47.904101 48.0702,-44.766601 -4.10666,7.66246 -40.9923,42.862001 -39.8755,42.117201 6.84182,-4.56342 11.457,-6.50476 21.3538,-14.709 -1.07351,4.43625 -16.858,16.1448 -13.9462,14.6296 17.1124,-8.90477 128.542,-126.890001 151.476,-148.145001 19.2729,-17.861 31.431,-37.0792 44.2276,-50.6656 1.31034,-1.39121 0.42875,4.81467 -1.74414,7.84443 -1.65243,2.30407 8.89136,-10.76 14.551,-17.3293 12.0422,-13.978 18.5078,-12.1177 25.0691,-14.8958 2.24669,-2.62058 6.03223,-1.96006 8.61094,-2.96162 4.15433,-1.613549 7.01761,-4.296589 9.06837,-7.645149 0.67771,-1.10659 -1.287,-6.72038 -0.93656,-8.18012 0.66402,-2.76605 3.70751,-4.52797 2.60169,-8.13491 -0.7732,-2.52209 0.33684,-4.41039 -0.28094,-7.04754 -0.37947,-1.61975 1.59041,-0.41248 1.56909,-1.99359 -0.0339,-2.51238 -1.92476,-7.80039 -2.24497,-10.3582 -0.15805,-1.26244 0.42394,-3.94892 -0.0489,-5.04584 -1.07638,-2.49748 -3.53208,-2.54386 -4.69984,-4.56424 -0.8071,-1.3964 1.90194,-1.99212 1.096,-3.38047 -0.54637,-0.94122 -3.94035,-2.24989 -5.1581,-3.60608 -2.58701,-2.8811 -7.48044,-5.38478 -9.39673,-7.86317 -1.43322,-1.85362 0.0907,-3.7333 -1.53434,-5.52758 -1.42905,-1.57786 -5.05251,-2.72932 -6.06256,-4.56008 -2.04122,-3.69979 -3.35879,-3.99266 -10.6542,-1.01634 -6.83659,2.78913 -15.3593,1.98138 -14.5599,5.99346 0.45469,2.28203 -6.73696,4.56849 -3.35313,8.21394 0,0 -0.88179,1.3234 -1.3108,1.98213 -1.89453,2.90911 -3.48506,5.73676 -2.79343,7.91681 z m -22.385,36.2961 c -4.84913,9.14108 -11.2275,16.3633 -25.3205,29.7918 0.28012,-3.75472 18.0913,-22.2844 25.3205,-29.7918 z" />
    </g>
  </svg>
  <svg
     id="svg20"
     version="1.1"
     y="40"
     x="-142"
     viewBox="0 0 500 500"
     height="500"
     width="500"
     style="overflow:visible">
    <g
       id="g18"
       transform="matrix(0.49726095,-0.05226423,0.05226423,0.49726095,0,0)"
       style="font-style:normal;font-weight:900;font-size:200px;font-family:'Noto Sans JP Black';fill:#ff0000;fill-opacity:1;stroke:#ffffff;stroke-width:8;stroke-linecap:round;stroke-linejoin:round;stroke-opacity:1">
      <g
         id="text12"
         style=""
         aria-label="不">
        <path
           id="path30"
           style=""
           d="m 116.2,-92.6 v -19 c 3.6,-5.4 7,-11 10.2,-16.6 H 188 V -158 H 12.4 v 29.8 H 87.8 C 69.8,-99 40.4,-70 5.4,-54 c 6.2,6.6 15.4,18.8 20,26.6 22,-11.4 41.8,-26.8 58.8,-44.4 v 90.4 h 32 v -98 c 20,16.8 44.2,38 55.4,52.2 l 25,-22.4 C 182.2,-65.8 151.2,-89.2 131,-105 Z" />
      </g>
      <g
         id="text14"
         style=""
         aria-label="正">
        <path
           id="path33"
           style=""
           d="m 322.2,-16.2 v -47.2 h 53.6 v -28.4 h -53.6 v -38.8 h 65.2 V -159 h -173 v 28.4 h 76.8 v 114.4 h -29.6 v -86.6 h -30.4 v 86.6 H 208 v 28.4 h 184.6 v -28.4 z" />
      </g>
      <g
         id="text16"
         style=""
         aria-label="解">
        <path
           id="path36"
           style=""
           d="m 530.6,-75.8 c 0.8,-3.6 1.6,-7.2 2.2,-10.8 L 515.6,-90 c 20,-11.2 27.2,-27 30.2,-47.2 h 18.4 c -0.6,12.8 -1.6,18.4 -3,20.2 -1.4,1.8 -3,2.2 -5.2,2.2 -2.6,0 -6.8,-0.2 -12.2,-0.8 3.6,6.2 6,16 6.4,23.2 H 536 v 16.6 z m -31.8,-26.4 c 4.2,4.6 8,10.8 10,15.2 -2,11.2 -5.4,22.4 -10,31.4 z m -31.2,47.8 V -67 h 7.6 v 12.6 z M 441.4,-67 h 7.4 v 12.6 h -7.6 c 0.2,-4 0.2,-8 0.2,-11.8 z m 16.2,-63.4 c -1.2,3.8 -2.6,7.8 -4,11.2 h -14 c 1.8,-3.6 3.4,-7.4 5.2,-11.2 z m 10,32.2 h 7.6 v 11 h -7.6 z m -26.2,0 h 7.4 v 11 h -7.4 z m 154,61.2 h -31.8 v -14.6 h 27.6 v -24.2 h -27.6 v -16.6 h -2.8 c 3.6,-0.2 7,-0.4 9.4,-0.8 5.2,-1 9.4,-2.8 13,-7.4 4.4,-5.6 6,-20 6.8,-51.4 0.2,-3 0.4,-8.8 0.4,-8.8 H 500 v 23.6 h 19.8 c -2.2,11.8 -7.4,21.4 -21,28.2 v -10.2 h -21.2 c 3.8,-8 7.6,-16.4 10.2,-23.8 l -16.4,-10 -3.6,1 h -15 c 1.6,-4.4 2.8,-9 4,-13.6 l -25.6,-5.6 c -5.2,23.4 -15.4,46.6 -28.8,61 4.4,2.8 11,8.4 16,12.8 v 31 c 0,22.6 -1,52.4 -14.6,73 5.4,2.4 15.8,9 20,12.8 9.4,-14.2 13.8,-33.8 16,-52.8 h 35.4 v 25 c 0,2.4 -0.8,3.2 -3,3.2 -2.4,0 -9.6,0 -16.2,-0.4 3.4,6.4 7.2,17.6 8,24.4 11.4,0 19.6,-0.6 26.4,-4.6 6.6,-4.2 8.4,-11.4 8.4,-22 v -39.6 c 5.6,2.6 13.2,6.4 17,9.2 2.4,-3.8 4.8,-8.4 6.8,-13.4 H 536 V -37 h -34.4 v 24.8 H 536 v 30.6 h 27.6 v -30.6 h 31.8 z" />
      </g>
    </g>
  </svg>
</svg>
