<?xml version="1.0" encoding="UTF-8" standalone="no"?>
<svg
   xmlns:dc="http://purl.org/dc/elements/1.1/"
   xmlns:cc="http://creativecommons.org/ns#"
   xmlns:rdf="http://www.w3.org/1999/02/22-rdf-syntax-ns#"
   xmlns:svg="http://www.w3.org/2000/svg"
   xmlns="http://www.w3.org/2000/svg"
   id="svg18"
   version="1.1"
   style="overflow:visible"
   viewBox="-190 -191 386 385"
   height="1540px"
   width="1544px">
  <metadata
     id="metadata24">
    <rdf:RDF>
      <cc:Work
         rdf:about="">
        <dc:format>image/svg+xml</dc:format>
        <dc:type
           rdf:resource="http://purl.org/dc/dcmitype/StillImage" />
      </cc:Work>
    </rdf:RDF>
  </metadata>
  <defs
     id="defs22" />
  <rect
     id="rect2"
     fill-opacity="0"
     fill="rgb(0,0,0)"
     height="385"
     width="386"
     y="-191"
     x="-190" />
  <svg
     id="svg8"
     version="1.1"
     y="-250"
     x="-250"
     viewBox="-250 -250 500 500"
     height="500"
     width="500"
     style="overflow:visible">
    <g
       style="fill:#ffffff;stroke-linejoin:round"
       id="g6"
       transform="rotate(-5)">
      <path
         style="fill:none;stroke:#e90606;stroke-width:14;stroke-linecap:butt;stroke-linejoin:round;stroke-opacity:1"
         id="path4"
         d="m -87.571,-117.402 c -28.5783,19.0475 -88.2898,79.512 -47.2571,175.267 48.3568,112.847 116.301,102.483 190.014,77.5871 50.2642,-16.9766 113.137,-52.5012 98.7399,-156.672 -14.3247,-103.648 -152.528,-158.519 -243.704,-108.983 -61.0136,33.149099 -93.6135,159.378 -36.6759,221.725 59.0497,64.6595 217.706,97.5758 259.962,-14.0728 47.8924,-126.54 1.11029,-185.5 -60.8363,-216.348 -53.2011,-26.4925 -116.332,-7.7702 -160.242,21.4965 z" />
    </g>
  </svg>
  <svg
     id="svg16"
     version="1.1"
     y="92"
     x="-119"
     viewBox="0 0 500 500"
     height="500"
     width="500"
     style="overflow:visible">
    <g
       id="g14"
       transform="matrix(0.67288319,-0.19294615,0.19294615,0.67288319,0,0)"
       style="font-style:normal;font-weight:900;font-size:200px;font-family:'Noto Serif JP Black';fill:#e90606;fill-opacity:1;stroke:#000000;stroke-width:0;stroke-linecap:round;stroke-linejoin:round;stroke-opacity:0">
      <g
         id="text10"
         style=""
         aria-label="正">
        <path
           id="path26"
           style=""
           d="M 148.4,2 H 120 v -75.6 h 54.4 c 3,0 5.4,-1 6,-3.2 -10.6,-9.2 -28.2,-22.6 -28.2,-22.6 l -15.6,20.2 H 120 v -65 h 60.8 c 3,0 5.2,-1 5.8,-3.2 -11,-9.2 -29.2,-23 -29.2,-23 l -16.2,20.6 H 16.4 l 1.6,5.6 H 88.4 V 2 H 64 v -97 c 5.6,-1 7,-3 7.4,-5.8 L 32.8,-104 V 2 H 5 l 1.6,5.6 h 182.2 c 3.2,0 5.4,-1 6,-3.2 C 183.6,-5 165,-19 165,-19 Z" />
      </g>
      <g
         id="text12"
         style=""
         aria-label="解">
        <path
           id="path29"
           style=""
           d="m 319,-62.8 c 2.8,-4.6 5.4,-9.6 7.6,-14.6 2.4,0.2 4.2,-0.4 5.4,-1.2 v 15.8 z m -52.8,11.4 V -80 h 6.4 v 28.6 z m -25,-28.6 h 6.2 v 28.6 h -7.2 c 0.8,-9.2 1,-18 1,-26 z m 16.2,-61.8 c -2,7 -5,16 -8,22.4 h -4.6 l -12.4,-4.4 c 5.2,-5.4 10,-11.4 14.4,-18 z m -16.2,28 h 6.2 v 28.2 h -6.2 z m 31.4,0 v 28.2 h -6.4 v -28.2 z m 93.4,84.2 h -7 v -27.6 h 29.8 c 2.8,0 4.8,-1 5.4,-3.2 -7.6,-7 -20.4,-17.2 -20.4,-17.2 l -11.2,14.8 H 359 v -22.8 c 4.8,-0.6 6.2,-2.6 6.6,-5 l -33.6,-3 v 11.4 L 305.2,-91 c -1.6,17.6 -5,36.4 -9.4,49.8 v -47.6 c 29,-11.8 45.4,-32.6 51.2,-59.8 h 13.6 c -0.8,18.2 -2,26.6 -4.2,28.4 -1,1 -2,1.2 -4.6,1.2 -3.2,0 -10.2,-0.2 -14.2,-0.6 v 2.4 c 6,1.6 9,3.8 11.4,7.2 2.4,3.2 2.8,9.4 2.8,16.4 10,0 16.6,-1.8 22.2,-5.4 8.6,-5.6 11,-16.6 12.2,-45.6 3.8,-0.6 6,-1.8 7.4,-3.4 l -22.2,-18 -12.6,11.8 h -65.4 l 1.8,5.6 h 22.6 c -1.2,21 -6.6,41.2 -22,56.2 v -17 c 4.4,-1 7.4,-2.8 8.8,-4.6 l -23.4,-18 -10.8,12.6 h -15 c 9.8,-5.4 19.8,-13.2 27.2,-19.2 4,-0.2 6.2,-0.8 7.8,-2.4 l -21.6,-18.8 -12.2,12.4 h -6.2 c 2,-3.2 3.8,-6.6 5.6,-10 4.6,0.2 7,-1.6 7.8,-4.2 l -32.2,-10 c -5.4,25.2 -16,50.4 -26.8,66.4 l 2.2,1.6 c 4,-2.2 7.8,-4.8 11.4,-7.6 v 33.8 c 0,30.4 -0.4,65.6 -13.8,93.4 l 2,1.6 c 21.8,-17.4 30,-41 33,-63.4 h 33 V -12 c 0,2.8 -0.8,4 -4,4 -4,0 -22.8,-1.2 -22.8,-1.2 v 2.8 c 9.2,1.6 13.2,4.2 16.2,8 2.8,3.4 3.8,9.2 4.4,17 26,-2.4 29.4,-11.6 29.4,-27.8 v -29.2 l 1.8,1 c 6.8,-5.4 12.8,-12 18,-19.8 H 332 v 27.6 h -35.6 l 1.6,5.6 h 34 v 43 h 5 c 10,0 22,-5.2 22,-7.2 V -24 h 34.8 c 2.8,0 4.8,-1 5.4,-3.2 -7.8,-7.6 -21.4,-18.6 -21.4,-18.6 z" />
      </g>
    </g>
  </svg>
</svg>
