<?xml version="1.0" encoding="UTF-8"?>
<svg id="_レイヤー_1" data-name="レイヤー_1" xmlns="http://www.w3.org/2000/svg" version="1.1" viewBox="0 0 1190 841">
  <!-- Generator: Adobe Illustrator 29.1.0, SVG Export Plug-In . SVG Version: 2.1.0 Build 142)  -->
  <defs>
    <style>
      .st0 {
        fill: red;
      }
    </style>
  </defs>
  <g>
    <path class="st0" d="M493.07,660.88c-24.96-7.59-49.17-18.14-70.73-32.93-20.96-14.38-39.19-33.09-50.6-55.98-11.47-23-16.39-49.44-14.41-75.03,1.97-25.59,10.59-50.16,22.74-72.62,12.21-22.57,27.65-43.34,45.42-61.83,17.21-17.9,36.65-33.68,57.71-46.83,21.43-13.38,44.58-24.01,68.75-31.38,25.89-7.9,52.79-11.94,79.85-12.41,26.47-.46,53.03,2.76,78.53,9.94,24.75,6.96,48.76,17.8,69.46,33.15,10.29,7.63,19.82,16.44,27.93,26.36,7.96,9.73,14.18,20.84,18.36,32.7,8.9,25.23,7.11,52.78-1.84,77.73-8.64,24.08-23.18,45.8-40.86,64.19-17.84,18.55-38.67,34.37-61.08,46.98-22.48,12.64-46.67,22.11-71.93,27.41-26.15,5.48-53.34,6.58-79.76,2.33-24.53-3.95-49.07-13.38-66.98-31.1-8.23-8.14-14.57-18.16-18.12-29.19-3.97-12.32-3.56-25.63-.51-38.11,3.09-12.62,9.01-24.51,16.33-35.2,7.03-10.26,15.47-19.48,24.89-27.6,18.99-16.38,42.02-28.98,66.6-34.4,24.9-5.48,53.85-3,74.13,13.8,4.77,3.96,8.71,9.01,11.57,14.51,2.92,5.61,4.21,11.7,4.36,18,.29,12.45-5.38,24.09-12.84,33.78-6.34,8.24-15.48,16.78-24,22.8-5.22,3.69-23.5,15.96-24.02,2.02-.3-7.93,3.46-10,9.33-13.32,5.75-3.25,11.62-8.92,15.99-13.84,4.14-4.67,7.65-9.83,10.41-15.44,2.89-5.86,4.5-11.95,4.53-18.51.06-12.97-7.74-25.26-19.42-30.85-12.08-5.78-25.81-5.34-38.6-2.48-12.87,2.88-25.29,8.16-36.62,14.87-10.87,6.44-21.09,14.03-30.08,22.92-17.74,17.55-32.24,40.57-34.08,65.98-.95,13.11,2.25,26.1,9.57,37.09,7.08,10.64,17.41,19.17,28.92,24.64,12.12,5.75,25.05,8.89,38.36,10.22,13.54,1.36,27.12,1.15,40.63-.41,26.53-3.05,52.29-11.7,75.99-23.87,22.75-11.67,43.93-26.76,62.24-44.61,18.27-17.82,33.49-38.9,42.97-62.69,9.79-24.55,12.78-52.53,3.86-77.81-2.13-6.05-4.78-11.91-7.94-17.5-3.13-5.53-6.96-10.67-11.08-15.5-8.39-9.83-18.36-18.29-29.06-25.48-22.3-14.99-48.29-24.4-74.68-28.99-26.92-4.68-54.88-4.73-81.86-.45-26.35,4.18-51.99,12.29-75.93,24.05-23.03,11.31-44.67,25.81-63.84,42.86-18.55,16.5-35.36,35.27-49.04,56.02-14.36,21.79-26.33,45.73-31.75,71.4-2.74,12.96-3.94,26.28-3,39.51.93,13.12,3.55,26.22,8.05,38.58,4.39,12.07,10.45,23.29,18.33,33.44,7.91,10.2,17.23,19.2,27.58,26.9,21.48,15.97,46.4,26.94,72.07,34.23,13.05,3.71,26.38,6.62,39.88,8.11,13.52,1.5,27.37,2.12,40.9.58,6.75-.76,13.48-1.94,20.15-3.19,3.17-.59,6.39-1.74,9.63-1.79,2.98-.04,6.13.64,8.81,1.96,2.07,1.02,5.44,3.46,4.15,6.19-1.1,2.32-4.34,2.62-6.53,3.09-6.61,1.42-13.27,2.57-19.95,3.58-13.57,2.06-27.23,2.4-40.93,1.63-13.51-.75-26.97-2.53-40.2-5.32-9-1.9-17.9-4.24-26.7-6.91"/>
    <path class="st0" d="M679.92,240.05c2.32.18,4.67-.55,6.85-1.26,2.49-.82,4.9-1.87,7.21-3.1,4.41-2.35,8.44-5.41,11.79-9.12,6.2-6.86,10.03-15.9,8.8-25.24-9.45,3.62-18.61,8.41-26.35,14.99-3.81,3.23-7.36,6.97-9.34,11.62-1.48,3.49-2.8,9.51,1.04,12.12M679.71,240.03c.11.02-.09-.12-.13-.15.04.05.09.1.13.15M391.34,317.64c3.1.19,6.14-.87,8.99-1.95,2.91-1.1,5.61-2.55,8.13-4.38,4.38-3.18,8.17-7.57,9.38-12.98,1.16-5.18-.52-11.07-4.97-14.21-2.34-1.66-5.22-2.24-8.03-2.49-3.19-.28-6.41-.27-9.6-.07-1.5.1-2.99.25-4.48.43-2.49,6.11-4.28,12.67-4.55,19.29-.24,5.8.52,12.31,5.14,16.35M882.57,403.11c10.17-2.06,19-9.16,25.81-16.62-6.03.14-12.03,1.48-17.43,4.2-2.43,1.22-4.74,2.75-6.51,4.85-1.72,2.04-3.28,4.95-1.88,7.57M286.01,516.66c6.19.46,14.73-3.35,14.93-10.46.01.29.03.58.04.87.02-.68.03-2.1-.71-2.47-.91-.46-2.38-.28-3.38-.3-2.82-.05-5.64.15-8.44.49-5.47.66-10.82,2.03-15.98,3.96,3.75,3.64,8.27,7.24,13.53,7.92M804.4,611.75c16.05-.15,31.14-5.89,45.14-12.92-8.66-1.83-17.72-1.4-26.3.65-4.03.96-7.94,2.3-11.57,4.3-2.92,1.61-5.98,3.77-7.08,7.06.07-.28.15-.55.22-.83-.19.56-.33,1.14-.4,1.73M804.93,613.43c-.1-.15-.26-.46-.39-.58.11.2.24.4.39.58M376.65,660.16c-.17-.19-.34-.36-.53-.53.14.16.34.42.53.53M377.49,661.33c-.12-.22-.26-.43-.4-.63.06.17.3.48.4.63M343.39,684.29c7.52-1.39,14.93-3.54,21.67-7.22,3.05-1.67,6.03-3.55,8.39-6.15,2.22-2.44,4.43-5.44,4.06-8.93.01.29.03.58.04.87-.07-.76-.18-1.8-.67-2.44-.72-.6-1.85-.63-2.73-.7-1.09-.09-2.18-.05-3.26.05-2.02.18-3.98.6-5.9,1.22-3.64,1.17-6.89,3.07-9.76,5.58-5.43,4.74-9.22,11.06-11.84,17.72M409.17,772.14c-21.35-3.24-42.9-9.62-60.72-22.19-8.51-6-16.36-13.45-21.76-22.42-5.57-9.26-8.44-20.08-7.58-30.89-23.45-.95-47.06-5.87-68.1-16.52-10.59-5.36-20.41-12.23-29.16-20.25-8.81-8.08-16.62-17.51-21.88-28.3-10.94-22.44-10.98-49.28-1.11-72.09,4.81-11.12,11.79-21.22,19.79-30.29,8.09-9.18,17.18-17.58,27.65-23.99.53-.32,1.06-.64,1.6-.96-14.9-20.38-19.63-47.4-17.96-72.17,1.64-24.19,10.72-46.94,23.76-67.21,13.4-20.83,30.58-39.23,49.6-55.03,19.21-15.96,41.28-30.06,65.76-36.13.73-.18,1.47-.36,2.2-.52.38-.09,1-.08,1.25-.44.86-1.21,1.4-2.78,2.1-4.09,1.57-2.95,3.27-5.83,5.1-8.63,3.56-5.45,7.48-10.66,11.66-15.64,7.9-9.4,16.64-18.12,25.9-26.17,18.56-16.14,39.44-29.51,61.66-40.02,23.28-11.01,48.02-18.9,73.33-23.64,26.43-4.95,53.41-6.33,80.23-4.65,25.91,1.62,52.85,5.85,75.73,18.83,7.11,4.04,13.75,8.99,18.84,15.45,25.96-5.03,53.15-4.06,79.1.53,25.14,4.44,49.61,12.93,71.67,25.84,21.17,12.39,40.72,28.49,54.04,49.31,12.92,20.2,20.72,43.94,20.68,68.02-.01,9.45-1.24,18.85-4,27.9-2.79,9.16-6.98,17.88-12.28,25.85,10.44,4.1,20.06,10.38,27.68,18.64,8,8.67,13.75,19.43,16.9,30.78,6.52,23.56,1.35,48.9-8.35,70.81-10.07,22.72-24.84,42.95-42.59,60.26-14.92,14.55-31.58,26.98-49.64,37.37,9.09,5.86,16.48,14.48,20.71,24.45,4.81,11.33,5.05,24.12,2.28,35.99-5.62,24.01-22.61,44.15-41.09,59.68-18.63,15.66-40.11,27.75-63.19,35.48-22.6,7.57-46.4,11.05-70.18,11.76-6.5.2-13.01.16-19.51.12-3.23-.02-6.53.08-9.69-.73-2.24-.57-4.76-1.59-6.32-3.36-1.6-1.81-1.37-4.11.74-5.36,2.46-1.46,5.43-1.47,8.19-1.45,6.1.06,12.21-.02,18.31-.22,23.53-.8,47.12-3.93,69.35-11.92,11.45-4.12,22.37-9.49,32.69-15.92,10.68-6.64,20.79-14.26,29.78-23.08,15.63-15.33,30.08-35.07,31.83-57.6.9-11.58-1.77-23.27-8.8-32.63-1.88-2.5-4.02-4.71-6.37-6.77-1.03-.9-1.59-1.59-2.9-.84-1.31.75-2.66,1.41-4.03,2.06-5.83,2.81-11.81,5.31-17.95,7.37-12,4.02-24.88,6.55-37.58,6.06-5.88-.23-12.31-1.2-17.34-4.46-2.33-1.51-4.43-3.67-5.17-6.4-.73-2.72.04-5.55,1.45-7.92,2.62-4.42,7.25-7.38,11.78-9.55,5.59-2.68,11.64-4.52,17.72-5.7,12.63-2.47,25.99-2.33,38.58.27,3.32.69,6.6,1.55,9.82,2.61,22.11-12.58,42.23-28.66,59.06-47.78,8.29-9.42,15.57-19.64,21.72-30.58,6.14-10.93,11.45-22.46,14.85-34.55,6.62-23.58,5.59-50.69-9.61-70.89-3.56-4.74-7.86-9.1-12.8-12.42-1.25-.84-2.53-1.61-3.84-2.34-.65-.36-1.31-.71-1.97-1.06-.45-.24-1.15-.89-1.7-.63-.54.26-1.03,1.09-1.44,1.52-.53.57-1.07,1.13-1.61,1.69-1.17,1.19-2.37,2.35-3.6,3.47-8.22,7.49-18.14,13.46-29.19,15.51-5.51,1.02-11.23,1.11-16.68-.29-5.16-1.32-10.85-4.05-13.61-8.84-2.95-5.14-1.3-10.75,2.3-15.05,3.57-4.26,8.66-6.96,13.75-8.96,5.87-2.31,12.04-3.75,18.32-4.34,3.34-.31,6.71-.4,10.06-.29,1.66.05,3.31.16,4.96.32.78.08,1.57.17,2.35.26.41.05,1.39.41,1.75.07.98-.91,1.68-2.51,2.36-3.65.85-1.46,1.67-2.95,2.46-4.45,1.46-2.79,2.79-5.65,3.97-8.56,2.39-5.9,4.24-12.02,5.32-18.3,4.32-25.14-2.02-51.45-14.27-73.51-5.79-10.43-13.14-19.91-21.74-28.18-8.88-8.54-19-15.86-29.58-22.15-22.28-13.24-47.47-21.18-73.16-24.27-19.34-2.33-39.38-2.14-58.42,2.27,3.18,8.71,2.84,18.19-1.1,26.59-3.83,8.17-10.46,14.81-17.99,19.65-7.59,4.87-16.37,8.15-25.37,9-5.77.55-11.69.05-17.18-1.83-5.12-1.75-10.02-4.68-12.84-9.44-6.03-10.15,1.58-21.37,8.95-28.34,9.04-8.54,20.63-14.51,32.12-19.02,3.24-1.27,6.52-2.43,9.83-3.48-2.96-4.88-7.47-8.62-12.24-11.64-5.25-3.32-10.94-5.89-16.78-7.96-12.46-4.42-25.47-6.63-38.62-7.72-26.63-2.21-53.41-1.17-79.69,3.75-25.09,4.69-49.55,12.7-72.43,24.06-21.77,10.81-42.2,24.66-60.09,41.13-6.34,5.83-12.35,12.03-17.92,18.6-5.75,6.79-11.21,13.97-15.63,21.7,11.79.15,24.74,2.16,34.13,9.89,4.42,3.64,7.55,8.67,8.24,14.41.68,5.71-1.1,11.41-4.41,16.04-6.53,9.12-17.78,14.73-28.58,16.8-10.64,2.04-23.19.9-31.81-6.26-9.58-7.96-9.71-21.81-7-33.01-12.14,4.82-23.5,11.96-33.99,19.67-10.38,7.63-20.17,16.06-29.26,25.19-16.62,16.69-31.3,35.73-41.23,57.18-5.18,11.2-9.05,23.01-10.84,35.24-1.87,12.78-1.65,25.86.48,38.59,1.03,6.17,2.55,12.27,4.66,18.17,1.06,2.96,2.26,5.87,3.62,8.7.66,1.36,1.35,2.71,2.07,4.04.35.65.72,1.29,1.09,1.92.34.59.85.18,1.36.03,6.35-1.82,12.91-2.97,19.49-3.5,6.55-.52,13.2-.44,19.66.84,4.66.92,9.49,2.49,13.14,5.65,1.86,1.61,3.46,3.71,4.14,6.1.72,2.54.3,5.23-.79,7.6-4.51,9.88-16.96,13.54-26.95,13.82-12.54.35-24.78-3.84-34.57-11.65-10,6.96-18.73,15.95-26.24,25.51-7.42,9.45-13.49,20-16.95,31.55-3.72,12.44-4.45,25.67-2.21,38.46,2.2,12.5,7.68,24.14,15.66,33.97,7.95,9.79,17.85,18.08,28.64,24.58,11.04,6.65,23.5,10.77,36.1,13.2,6.35,1.22,12.77,1.99,19.22,2.38,1.64.1,3.29.18,4.94.23.72.02,1.46-.02,2.18.04.64.05.71-.15.89-.76.89-3.05,2.02-6.04,3.35-8.93,4.89-10.6,12.93-19.3,23.84-23.76,10.41-4.25,22.33-4.77,33.21-2.07,5.28,1.31,10.92,3.69,14.29,8.15,3.68,4.88,2.45,10.89-.87,15.58-3.24,4.58-7.77,8.06-12.6,10.82-5.41,3.1-11.25,5.38-17.24,7.1-6.36,1.83-12.87,3.07-19.45,3.78-1.49.16-2.99.29-4.48.4-.52.04-1.12-.04-1.2.62-.09.75-.12,1.52-.19,2.27-.26,3.12-.25,6.27.1,9.39,2.64,23.67,24.64,39.42,45.34,47.01,12.5,4.59,25.73,6.61,38.94,7.87,13.63,1.29,27.36,1.5,41.03.99,26.98-1,53.75-5.12,79.34-13.87,12.43-4.25,24.47-9.55,36.17-15.52,11.48-5.86,22.62-12.38,33.16-19.8,10.71-7.54,20.78-15.11,29.44-24.93,7.87-8.91,15.86-19.51,17.35-31.67.4-3.27.33-6.62-.65-9.78-.36-1.15-.8-2.35-.12-3.48.74-1.22,2.11-1.98,3.42-2.45,3.62-1.3,8.07-1.25,11.68.02,1.79.63,3.49,1.66,4.59,3.23,1.5,2.13,1.89,5.18,2.1,7.72.5,6.11-.95,12.28-3.26,17.9-4.38,10.7-12.07,19.58-19.81,27.98-8.6,9.33-19.13,17.65-29.59,24.85-20.75,14.27-43.54,25.85-67.26,34.28-24.82,8.82-50.82,13.77-77.05,15.69-25.16,1.84-50.72,1.4-75.67-2.4"/>
  </g>
  <g>
    <g>
      <path class="st0" d="M356.41,210.82c-6.19-.9-12.19-3.03-17.14-6.63-4.76-3.45-8.3-7.83-11-12.82-5.91-10.92-6.96-24.02-5.14-35.97,1.72-11.27,6.27-23.11,15.59-30.92,4.51-3.79,9.97-6.64,16.03-7.56,3.3-.5,6.71-.56,9.99.12,3.15.65,6.27,1.54,9.32,2.49,2.41.75,5.98,1.34,7.46,3.49,1.71,2.47-1.93,4.1-3.99,4.55-2.92.65-6.1.48-8.98-.28-1.43-.38-2.81-.9-4.22-1.34-.71-.22-1.42-.4-2.14-.59-.36-.09-.72-.19-1.09-.28-.43.17-.83.39-1.24.6-10.89,5.78-16.09,18.4-18.01,29.33-2.09,11.92-1.43,25.42,4.89,36.25,2.83,4.84,7.1,10.12,13.06,11.73.63.13,1.35-.17,1.96-.34.76-.21,1.51-.45,2.25-.72,1.53-.56,2.94-1.29,4.32-2.11,2.74-1.63,4.54-3.89,6.05-6.52,1.53-2.67,2.92-5.43,4.2-8.2.54-1.17.75-2.81,1.64-3.77.98-1.06,2.6-1.55,4.01-1.85,3.02-.64,6.39-.45,9.33.44,1.26.38,2.56.94,3.51,1.82,1.19,1.1,1.02,2.22.54,3.59-.97,2.79-2.47,5.5-3.86,8.13-1.38,2.61-2.85,5.43-4.97,7.6-4.24,4.33-10.32,7.08-16.31,8.66-5.29,1.4-10.61,1.89-16.07,1.1"/>
      <path class="st0" d="M357.14,171.57c-1.26-.48-2.69-1.16-3.36-2.33-.77-1.35.14-2.5,1.33-3.27,1.48-.97,3.14-1.69,4.73-2.48,1.75-.87,3.49-1.76,5.27-2.57-.21.09-.42.19-.64.28,6.11-2.79,12.26-5.51,18.33-8.38,3.04-1.44,6.06-2.91,9.08-4.38,1.45-.71,2.9-1.42,4.35-2.14,1.48-.74,2.95-1.62,4.55-2.11,2.89-.88,6.23-.83,9.17-.17,1.99.44,5.73,1.57,5.78,3.96.02,1.08-.91,1.95-1.87,2.43-1.56.79-3.12,1.56-4.68,2.34-3.01,1.49-6.04,2.95-9.08,4.4-3.99,1.9-8,3.78-12.04,5.59.48-.22.48-.21-.01,0-.37.17-.74.34-1.11.51-.74.34-1.48.68-2.22,1.01-1.35.62-2.71,1.23-4.07,1.85-2.68,1.21-5.29,2.55-7.93,3.84-1.21.59-2.36,1.38-3.63,1.86-1.24.47-2.6.7-3.93.8-2.69.2-5.53-.08-8.04-1.04"/>
      <path class="st0" d="M392.54,207.53c-1.05-.4-2.13-.9-2.9-1.7-.99-1.03-1.16-2.74-1.54-4.03-.9-3.06-1.8-6.11-2.68-9.17-1.77-6.13-3.38-12.24-4.81-18.44-.69-2.97-1.05-6.02-1.52-9.03-.18-1.17-.62-2.8.03-3.9.58-.98,1.79-1.54,2.87-1.91,2.83-.98,6.13-.95,9.06-.4,2.09.4,6.02,1.5,6.27,3.93.25,2.38.51,4.73.88,7.1.39,2.53.98,5,1.56,7.5,1.19,5.16,2.65,10.24,4.13,15.34.72,2.49,1.45,4.97,2.18,7.46.36,1.24.73,2.48,1.1,3.72.31,1.06.16,1.92-.73,2.69-1.62,1.41-4.13,1.81-6.27,1.91-2.57.13-5.23-.15-7.62-1.07"/>
    </g>
    <path class="st0" d="M440.52,169.29c2.69-1.28,5.04-2.99,6.99-5.13,2.02-2.21,3.28-4.99,4.21-7.72,1.95-5.71,3.26-11.94,2.58-17.95-.16-1.4-.42-2.79-1.03-4.08-.27-.57-.56-1.17-.96-1.67-.36-.45-1.74-.12-2.31-.07-.79.07-1.58.16-2.36.26-.72.09-1.06,1.02-1.42,1.58-.84,1.33-1.61,2.71-2.31,4.11-2.79,5.57-4.55,11.55-5.36,17.65-.31,2.32-.5,4.67-.21,7.01.26,2.09.74,4.32,2.18,6.01M434.55,177c-5.38-1.54-10.94-4.96-13.09-10-2.46-5.76-1.66-12.17-.42-18.09,2.31-11.08,7.81-23,18.06-29.68,6.01-3.92,13.49-5.48,20.55-3.19,2,.65,6.99,2.97,4.91,5.6-.79,1-2.27,1.42-3.51,1.67-.88.17-1.79.25-2.69.25-.86.33-1.67.74-2.46,1.19,5.89,1.16,11.87,3.99,14.77,9.08,2.95,5.19,2.37,11.91,1.41,17.5-.94,5.5-2.55,11.47-5.99,16.13-3.24,4.38-8.07,7.65-13.38,9.58-5.85,2.12-12.24,1.66-18.15-.03"/>
    <path class="st0" d="M497.68,143.36c2.69-1.5,4.58-3.97,6.17-6.43,1.72-2.64,2.98-5.51,4.09-8.41,1.1-3.01,2-6.08,2.56-9.22.54-3.03,1-6.29.16-9.3-5.63,3.69-9.71,9.18-12.48,14.96-2.6,5.41-4.97,13.23-.51,18.4M491.78,151.19c-4.77-1.36-9.09-4.04-11.89-7.91-3.22-4.44-3.52-9.98-2.25-15.08,2.35-9.47,8.59-18.56,17.13-24.23-1.77-.78-5.2-2.78-3.55-4.98,1.54-2.06,5.26-2.11,7.65-1.93,1.59.12,3.17.34,4.74.62.79.14,1.58.29,2.36.46.87.18,1.85.57,2.73.5,3.07-.23,6.31.1,9.2,1.11,1.28.44,2.53,1.05,3.56,1.89.48.38.92.84,1.19,1.37.13.25.22.52.25.8.39.24.76.5,1.13.76,2.42,1.75,3.94,3.85,4.79,6.59.9,2.92.71,6.05.29,9.03-.42,3-1.14,5.96-2.07,8.85-2.25,6.99-5.54,14.6-11.84,19.31-6.61,4.95-15.63,5.1-23.43,2.85"/>
    <path class="st0" d="M557.49,132.81c2.73-1.36,4.66-3.98,6.13-6.44,1.64-2.74,2.63-5.86,3.38-8.9,1.61-6.5,2.05-13.27,2.22-19.92-3.14,1.54-6.05,3.58-8.11,6.29-2.07,2.72-3.4,5.88-4.42,9.06-1.04,3.21-1.73,6.54-1.86,9.9-.14,3.55-.12,7.26,2.66,10.01M547.72,138.93c-5.47-2.44-10.2-6.89-11.08-12.66-.87-5.77.22-12.01,2.13-17.52,1.88-5.43,4.7-10.37,9.51-14.03,4.89-3.71,10.63-6.19,17-6.48,1.33-.06,2.67-.04,4.01.05-1.07-6.24-1.5-12.59-1.52-18.91,0-3.17.05-6.34.12-9.51.03-1.43.09-2.86.26-4.28.16-1.35.29-2.99,1.09-4.17,1.46-2.18,5.45-2.21,7.84-2.03,2.91.22,6,.93,8.36,2.6,1.08.77,1.77,1.65,1.86,2.93.12,1.67.2,3.34.25,5.01.1,3.19.18,6.38.22,9.57.09,6.31.04,12.63,0,18.95-.01,1.56.09,2.97.4,4.51.15.75.31,1.49.48,2.23.18.8.9,1.19,1.49,1.78,1.5,1.49,4.57,4.77,2.62,6.85-.19.2-.41.38-.65.53-.39.25-.13.41.06.77.32.62.64,1.24,1.03,1.83.83,1.27,1.8,2.47,2.81,3.63,2.06,2.36,4.51,4.56,6.96,6.57,1.55,1.17,5.56,2.51,4.41,5.06-1.05,2.32-5.02,2.46-7.26,2.38-5.69-.19-10.34-2.81-14.35-6.36-1.48,7.54-4.75,16.05-12.03,20.41-7.62,4.56-18.13,3.8-26.01.3"/>
    <g>
      <path class="st0" d="M623.07,99.12c-.94-.55-2.04-1.32-2.35-2.36-.18-.62.07-1.28.2-1.89.18-.87.37-1.75.55-2.62.66-3.11,1.36-6.21,2.04-9.32,1.3-5.97,2.91-11.93,4.97-17.71,2.1-5.89,4.16-11.78,6.78-17.5.52-1.15.97-2.14,2.19-2.77,1.19-.62,2.59-.9,3.93-1.03,2.98-.3,6.23.11,8.99,1.22,1.2.49,2.42,1.17,3.2,2.17,1.09,1.41.19,2.6-.43,3.99-1.24,2.79-2.5,5.62-3.52,8.49-1.07,2.99-2.13,5.98-3.2,8.98-1.05,2.93-1.81,5.92-2.7,8.9-1.8,6.05-2.94,12.31-4.22,18.47-.25,1.2-.31,2.5-1.36,3.36-1.03.84-2.49,1.23-3.82,1.44-2.94.47-6.21.14-9.01-.81-.77-.26-1.52-.59-2.22-.99"/>
      <path class="st0" d="M620.62,129.07c-1.04-.58-2.1-1.43-2.32-2.59-.26-1.35-.13-2.87-.04-4.23.1-1.39.3-2.79.55-4.17.25-1.43.44-2.99,1.11-4.32,1.05-2.09,4.71-2.48,6.84-2.51,2.94-.05,6.12.45,8.7,1.83,1.04.56,2.21,1.35,2.59,2.46.21.61.05,1.16-.2,1.74-.29.65-.39,1.4-.52,2.1-.27,1.45-.49,2.91-.62,4.38-.07.75-.1,1.5-.11,2.25,0,.76.21,1.68-.09,2.41-.96,2.31-5.05,2.64-7.27,2.64-2.94,0-6.1-.54-8.62-1.99"/>
    </g>
  </g>
</svg>